<?xml version="1.0" encoding="utf-8"?>
<!-- Generator: Adobe Illustrator 21.1.0, SVG Export Plug-In . SVG Version: 6.00 Build 0)  -->
<svg version="1.1" id="Layer_1" xmlns="http://www.w3.org/2000/svg" xmlns:xlink="http://www.w3.org/1999/xlink" x="0px" y="0px"
	 viewBox="0 0 383.6 544.6" style="enable-background:new 0 0 383.6 544.6;" xml:space="preserve">
<style type="text/css">
	.st0{opacity:0.8;}
	.st1{fill:#333333;}
	.st2{fill:none;}
	.st3{opacity:0.49;fill:#9FEDFF;enable-background:new    ;}
	.st4{clip-path:url(#SVGID_2_);}
	.st5{fill:url(#SVGID_3_);}
	.st6{fill:url(#SVGID_4_);}
	.st7{opacity:0.49;fill:url(#SVGID_5_);enable-background:new    ;}
	.st8{fill:url(#SVGID_6_);}
	.st9{fill:url(#SVGID_7_);}
	.st10{fill:url(#SVGID_8_);}
	.st11{fill:url(#SVGID_9_);}
	.st12{opacity:0.64;fill:url(#SVGID_10_);enable-background:new    ;}
	.st13{opacity:0.7;fill:#E6E6E5;enable-background:new    ;}
	.st14{opacity:0.7;}
	.st15{fill:#E6E6E5;}
	.st16{font-family:'MuseoSans-100';}
	.st17{font-size:12px;}
	.st18{fill:none;stroke:#E6E6E5;stroke-width:0.57;stroke-miterlimit:10;}
	.st19{fill:url(#SVGID_11_);}
	.st20{fill:url(#SVGID_12_);}
	.st21{fill:url(#SVGID_13_);}
	.st22{opacity:0.49;fill:url(#SVGID_14_);enable-background:new    ;}
	.st23{fill:url(#SVGID_15_);}
	.st24{fill:url(#SVGID_16_);}
	.st25{fill:url(#SVGID_17_);}
	.st26{fill:url(#SVGID_18_);}
	.st27{opacity:0.64;fill:url(#SVGID_19_);enable-background:new    ;}
	.st28{fill:#E6E7E8;}
	.st29{fill:none;stroke:#E6E7E8;stroke-width:0.57;stroke-miterlimit:10;}
</style>
<title>interface1Asset 2login</title>
<g id="Layer_2">
	<g id="Isolation_Mode">
		<g class="st0">
			<path class="st1" d="M246.4,72.3c-5.8,33.5-37.6,55.9-71.1,50.1c-25.6-4.4-45.7-24.5-50.1-50.1H0.3v472h383v-472L246.4,72.3z"/>
			<path class="st2" d="M185.8,123.3c34,0,61.6-27.5,61.6-61.5c0-34-27.5-61.6-61.5-61.6s-61.6,27.5-61.6,61.5
				c0,3.6,0.3,7.1,0.9,10.6C130.3,101.8,155.9,123.3,185.8,123.3z"/>
		</g>
		<path class="st3" d="M25.8,160.8h322c6.6,0,12,5.4,12,12v29c0,6.6-5.4,12-12,12h-322c-6.6,0-12-5.4-12-12v-29
			C13.8,166.2,19.2,160.8,25.8,160.8z"/>
		<path class="st3" d="M26.3,233.3h322c6.6,0,12,5.4,12,12v29c0,6.6-5.4,12-12,12h-322c-6.6,0-12-5.4-12-12v-29
			C14.3,238.7,19.7,233.3,26.3,233.3z"/>
		<g>
			<defs>
				<circle id="SVGID_1_" cx="185.8" cy="61.8" r="52.5"/>
			</defs>
			<clipPath id="SVGID_2_">
				<use xlink:href="#SVGID_1_"  style="overflow:visible;"/>
			</clipPath>
			<g class="st4">
				
					<linearGradient id="SVGID_3_" gradientUnits="userSpaceOnUse" x1="-1080.6384" y1="-78.8138" x2="-1080.6384" y2="-19.5138" gradientTransform="matrix(-0.52 -0.86 -0.86 0.52 -425.54 -820.97)">
					<stop  offset="0" style="stop-color:#2175BB"/>
					<stop  offset="1" style="stop-color:#40C3D9"/>
				</linearGradient>
				<path class="st5" d="M154.3,103.6l19.1-34.9c1.8-3.3,5.2-5.4,9-5.5l12-0.2c2.9,0,5.6,1.5,7.1,4l7.9,13.1c4.2,7-12.5,3-16.9-3.8
					c-0.1-0.2-1.7-2.8-1.7-2.8l-4.9,8.6c-6.4,11.4-17.7,19.3-30.6,21.3L154.3,103.6z"/>
				
					<linearGradient id="SVGID_4_" gradientUnits="userSpaceOnUse" x1="-1095.6476" y1="-70.464" x2="-1074.2676" y2="-70.464" gradientTransform="matrix(-0.52 -0.86 -0.86 0.52 -425.54 -820.97)">
					<stop  offset="0" style="stop-color:#2AA7DF"/>
					<stop  offset="1" style="stop-color:#293D8F"/>
				</linearGradient>
				<path class="st6" d="M190.7,73.5l1.9-3.4c0,0,4.8-9.6,10.6-0.1l6.1,10.1c4.2,7-12.5,3-16.9-3.8
					C192.3,76.1,190.7,73.5,190.7,73.5"/>
				
					<linearGradient id="SVGID_5_" gradientUnits="userSpaceOnUse" x1="-678.3624" y1="-250.5372" x2="-678.3624" y2="-209.0749" gradientTransform="matrix(1.919872e-03 -1 -1 -1.919872e-03 -53.469 -595.4677)">
					<stop  offset="0" style="stop-color:#2AA7DF;stop-opacity:0"/>
					<stop  offset="9.000000e-02" style="stop-color:#4CB5E4;stop-opacity:0.16"/>
					<stop  offset="0.23" style="stop-color:#7BC8EB;stop-opacity:0.38"/>
					<stop  offset="0.36" style="stop-color:#A3D9F1;stop-opacity:0.57"/>
					<stop  offset="0.5" style="stop-color:#C4E7F6;stop-opacity:0.72"/>
					<stop  offset="0.63" style="stop-color:#DEF1FA;stop-opacity:0.84"/>
					<stop  offset="0.76" style="stop-color:#F0F9FD;stop-opacity:0.93"/>
					<stop  offset="0.89" style="stop-color:#FBFDFE;stop-opacity:0.98"/>
					<stop  offset="1" style="stop-color:#FFFFFF"/>
				</linearGradient>
				<path class="st7" d="M164.2,101l17.7-32.3c1.8-3.3,5.2-5.4,9-5.5l4.9-0.1c-0.5-0.1-1-0.1-1.5-0.1l-12,0.2
					c-3.8,0.1-7.2,2.1-9,5.4l-19.1,34.9l1-0.2C158.3,103,161.3,102.1,164.2,101z"/>
				
					<linearGradient id="SVGID_6_" gradientUnits="userSpaceOnUse" x1="-678.7645" y1="-227.6142" x2="-678.8845" y2="-257.1642" gradientTransform="matrix(-1.919872e-03 -1 -1 1.919872e-03 -55.444 -597.4894)">
					<stop  offset="0" style="stop-color:#89CEDE"/>
					<stop  offset="1" style="stop-color:#23ADDF"/>
				</linearGradient>
				<path class="st8" d="M202.8,69.2c0,0-0.1-0.2-0.3-0.4c-0.3-0.4-0.6-0.8-1-1.1c-0.5-0.5-1.1-1-1.8-1.3c-0.8-0.4-1.8-0.5-2.8-0.3
					c-0.5,0.2-1,0.4-1.4,0.8c-0.5,0.4-0.9,0.8-1.2,1.2c-0.4,0.5-0.8,1-1.1,1.5c-0.3,0.5-0.6,1.1-1,1.7l-4.1,7.3l-2.1,3.7
					c-0.7,1.2-1.4,2.4-2.2,3.5c-0.8,1.1-1.6,2.1-2.4,3c-0.4,0.5-0.8,0.9-1.2,1.3l-1.2,1.2l-1,1.1l-1,0.9c-0.3,0.3-0.6,0.6-0.9,0.8
					l-0.8,0.7c-0.5,0.4-0.9,0.7-1.2,0.9l-0.4,0.3l1.5-1.2l0.8-0.7c0.3-0.2,0.6-0.5,0.9-0.8l1-1l1.1-1.1L180,90
					c0.4-0.4,0.8-0.9,1.2-1.4c0.8-0.9,1.6-2,2.3-3.1c0.8-1.1,1.5-2.3,2.2-3.5l2.1-3.7l4.1-7.3c0.3-0.6,0.6-1.2,1-1.7
					c0.3-0.5,0.7-1.1,1.1-1.5c0.4-0.5,0.8-0.9,1.3-1.2c0.5-0.4,1-0.6,1.5-0.8c0.5-0.1,1.1-0.2,1.6-0.1c0.5,0.1,0.9,0.2,1.3,0.5
					c0.7,0.4,1.3,0.9,1.8,1.4c0.3,0.4,0.6,0.7,0.9,1.1C202.7,69,202.8,69.2,202.8,69.2z"/>
				
					<linearGradient id="SVGID_7_" gradientUnits="userSpaceOnUse" x1="-549.6378" y1="1462.4718" x2="-521.9078" y2="1413.8418" gradientTransform="matrix(0.51 0.86 0.86 -0.51 -772.1 1229.27)">
					<stop  offset="0" style="stop-color:#AED13E"/>
					<stop  offset="1" style="stop-color:#3EB449"/>
				</linearGradient>
				<path class="st9" d="M222,20l-19.4,34.7c-1.8,3.3-5.3,5.3-9.1,5.4h-12c-2.9,0-5.5-1.5-7-4l-7.8-13.2c-4.1-7,12.5-2.9,16.9,3.9
					c0.1,0.2,1.7,2.8,1.7,2.8l4.9-8.5c6.5-11.3,17.8-19.1,30.8-21L222,20z"/>
				
					<linearGradient id="SVGID_8_" gradientUnits="userSpaceOnUse" x1="-544.3337" y1="1419.0371" x2="-522.9501" y2="1419.0371" gradientTransform="matrix(0.51 0.86 0.86 -0.51 -772.1 1229.27)">
					<stop  offset="0" style="stop-color:#3B9E48"/>
					<stop  offset="1" style="stop-color:#056A38"/>
				</linearGradient>
				<path class="st10" d="M185.2,49.7l-2,3.4c0,0-4.9,9.6-10.6,0l-6-10.1c-4.1-7,12.5-2.9,16.9,3.9
					C183.6,47.1,185.2,49.7,185.2,49.7"/>
				
					<linearGradient id="SVGID_9_" gradientUnits="userSpaceOnUse" x1="-167.7305" y1="-50.9993" x2="-167.6105" y2="-21.4493" gradientTransform="matrix(1.099531e-02 -0.9999 -0.9999 -1.099531e-02 153.4943 -125.6545)">
					<stop  offset="0" style="stop-color:#DCE23C"/>
					<stop  offset="1" style="stop-color:#3EB449"/>
				</linearGradient>
				<path class="st11" d="M173.2,53.9c0,0,0.1,0.2,0.3,0.4c0.3,0.4,0.6,0.8,0.9,1.1c0.5,0.5,1.1,1,1.8,1.3c0.8,0.4,1.8,0.6,2.8,0.3
					c0.5-0.2,1-0.4,1.4-0.7c0.5-0.4,0.9-0.8,1.3-1.2c0.4-0.5,0.8-1,1.1-1.5c0.3-0.5,0.6-1.1,1-1.7l4.2-7.3l2.1-3.7
					c0.7-1.2,1.5-2.4,2.3-3.5c0.8-1.1,1.6-2.1,2.5-3c0.4-0.5,0.8-0.9,1.2-1.3l1.2-1.2l1.1-1.1l1.1-0.9c0.3-0.3,0.6-0.5,1-0.8
					l0.8-0.6l1.2-0.9l0.4-0.3l-1.5,1.2l-0.8,0.7c-0.3,0.2-0.6,0.5-0.9,0.8l-1,1l-1.1,1.1l-1.1,1.2c-0.4,0.4-0.8,0.9-1.2,1.3
					c-0.8,0.9-1.6,2-2.4,3c-0.8,1.1-1.6,2.3-2.2,3.4l-2.1,3.7l-4.2,7.3c-0.4,0.6-0.7,1.2-1,1.7c-0.3,0.5-0.7,1-1.2,1.5
					c-0.4,0.5-0.9,0.9-1.4,1.2c-0.5,0.3-1,0.6-1.6,0.8c-0.5,0.1-1.1,0.2-1.6,0.1c-0.5-0.1-0.9-0.3-1.3-0.5c-0.7-0.4-1.3-0.9-1.8-1.4
					c-0.3-0.4-0.6-0.8-0.9-1.2C173.2,54.1,173.2,53.9,173.2,53.9z"/>
				
					<linearGradient id="SVGID_10_" gradientUnits="userSpaceOnUse" x1="-1091.6847" y1="955.9585" x2="-1091.6847" y2="997.4727" gradientTransform="matrix(-1.483473e-02 0.9999 0.9999 1.483473e-02 -791.8588 1117.105)">
					<stop  offset="0" style="stop-color:#3B9E48"/>
					<stop  offset="1" style="stop-color:#056A38"/>
				</linearGradient>
				<path class="st12" d="M222,20l-1,0.1c-3.1,0.4-6.1,1.2-9,2.3l-18.1,32.1c-1.9,3.3-5.3,5.3-9.1,5.3h-4.9c0.5,0.1,1,0.1,1.5,0.1
					h12c3.8,0,7.3-2,9.1-5.3L222,20"/>
			</g>
		</g>
		<path class="st13" d="M333.4,185.7c3.2-1.7,4.5-5.7,2.8-8.9c-1.7-3.2-5.7-4.5-8.9-2.8s-4.5,5.7-2.8,8.9c0.6,1.2,1.6,2.1,2.8,2.8
			c-4.3,1.4-7.2,5.3-7.2,9.8v5.2h20.6v-5.2C340.6,191,337.7,187,333.4,185.7z"/>
		<g class="st14">
			<path class="st15" d="M340.1,255h-1.9v-2.4c0-4.4-3.5-7.9-7.9-7.9c-4.4,0-7.9,3.5-7.9,7.9v2.4h-1.9c-1.5,0-2.7,1.2-2.7,2.7V273
				c0,1.5,1.2,2.7,2.7,2.7h19.5c1.5,0,2.7-1.2,2.7-2.7v-15.3C342.8,256.2,341.6,255,340.1,255C340.1,255,340.1,255,340.1,255z
				 M326,252.7c-0.1-2.4,1.7-4.4,4.1-4.5s4.4,1.7,4.5,4.1c0,0.1,0,0.3,0,0.4v2.3H326V252.7z M331.8,268.7v3.9c0,0.2-0.1,0.3-0.3,0.3
				c0,0,0,0,0,0h-1.9c-0.2,0-0.3-0.1-0.3-0.3v-3.9c-1.8-0.7-2.7-2.7-2-4.4c0.7-1.8,2.7-2.7,4.4-2s2.7,2.7,2,4.4
				C333.4,267.6,332.7,268.3,331.8,268.7z"/>
		</g>
		<text transform="matrix(1 0 0 1 34.28 323.73)" class="st15 st16 st17">L</text>
		<text transform="matrix(1 0 0 1 40.35 323.73)" class="st15 st16 st17">embrar meu usuário</text>
		<text transform="matrix(1 0 0 1 244.28 323.73)" class="st15 st16 st17">Esque</text>
		<text transform="matrix(1 0 0 1 276.9299 323.73)" class="st15 st16 st17">c</text>
		<text transform="matrix(1 0 0 1 283.51 323.73)" class="st15 st16 st17">eu sua senha?</text>
		<circle class="st18" cx="22.8" cy="319.9" r="8.5"/>
		<circle class="st15" cx="22.8" cy="319.9" r="5.7"/>
		
			<linearGradient id="SVGID_11_" gradientUnits="userSpaceOnUse" x1="244.69" y1="154.93" x2="267.99" y2="154.93" gradientTransform="matrix(1 0 0 -1 0 546)">
			<stop  offset="0" style="stop-color:#AED13E"/>
			<stop  offset="1" style="stop-color:#3EB449"/>
		</linearGradient>
		<path class="st19" d="M261.7,409.4h-17l6.3-36.7h17L261.7,409.4z"/>
		
			<linearGradient id="SVGID_12_" gradientUnits="userSpaceOnUse" x1="-1348.3568" y1="120.9362" x2="-1348.3568" y2="202.7562" gradientTransform="matrix(-0.52 -0.86 -0.86 0.52 -425.54 -820.97)">
			<stop  offset="0" style="stop-color:#2175BB"/>
			<stop  offset="1" style="stop-color:#40C3D9"/>
		</linearGradient>
		<path class="st20" d="M104.5,450.4l26.3-48.1c2.5-4.6,7.3-7.4,12.5-7.5l16.6-0.2c4-0.1,7.7,2,9.8,5.4l11,18.1
			c5.8,9.6-17.2,4.2-23.4-5.2c-0.2-0.2-2.4-3.9-2.4-3.9l-6.7,11.9c-8.8,15.8-24.3,26.6-42.2,29.4L104.5,450.4z"/>
		
			<linearGradient id="SVGID_13_" gradientUnits="userSpaceOnUse" x1="-1370.7064" y1="130.4608" x2="-1341.1964" y2="130.4608" gradientTransform="matrix(-0.52 -0.86 -0.86 0.52 -425.54 -820.97)">
			<stop  offset="0" style="stop-color:#2AA7DF"/>
			<stop  offset="1" style="stop-color:#293D8F"/>
		</linearGradient>
		<path class="st21" d="M154.8,408.9l2.7-4.7c0,0,6.7-13.3,14.6-0.1l8.4,13.9c5.8,9.6-17.2,4.2-23.4-5.2
			C157,412.6,154.8,408.9,154.8,408.9"/>
		
			<linearGradient id="SVGID_14_" gradientUnits="userSpaceOnUse" x1="-1017.557" y1="-217.1737" x2="-1017.557" y2="-159.9609" gradientTransform="matrix(1.919872e-03 -1 -1 -1.919872e-03 -53.469 -595.4677)">
			<stop  offset="0" style="stop-color:#2AA7DF;stop-opacity:0"/>
			<stop  offset="9.000000e-02" style="stop-color:#4CB5E4;stop-opacity:0.16"/>
			<stop  offset="0.23" style="stop-color:#7BC8EB;stop-opacity:0.38"/>
			<stop  offset="0.36" style="stop-color:#A3D9F1;stop-opacity:0.57"/>
			<stop  offset="0.5" style="stop-color:#C4E7F6;stop-opacity:0.72"/>
			<stop  offset="0.63" style="stop-color:#DEF1FA;stop-opacity:0.84"/>
			<stop  offset="0.76" style="stop-color:#F0F9FD;stop-opacity:0.93"/>
			<stop  offset="0.89" style="stop-color:#FBFDFE;stop-opacity:0.98"/>
			<stop  offset="1" style="stop-color:#FFFFFF"/>
		</linearGradient>
		<path class="st22" d="M118.2,446.9l24.4-44.6c2.5-4.6,7.2-7.4,12.4-7.5l6.8-0.1c-0.7-0.1-1.3-0.2-2-0.2l-16.6,0.2
			c-5.2,0.1-10,2.9-12.5,7.5l-26.3,48.1l1.4-0.2C110.1,449.5,114.2,448.4,118.2,446.9z"/>
		
			<linearGradient id="SVGID_15_" gradientUnits="userSpaceOnUse" x1="-1016.8416" y1="-184.4945" x2="-1017.0016" y2="-225.2545" gradientTransform="matrix(-1.919872e-03 -1 -1 1.919872e-03 -55.444 -597.4894)">
			<stop  offset="0" style="stop-color:#89CEDE"/>
			<stop  offset="1" style="stop-color:#23ADDF"/>
		</linearGradient>
		<path class="st23" d="M171.5,402.9c0,0-0.1-0.2-0.4-0.6c-0.4-0.5-0.8-1-1.3-1.5c-0.7-0.7-1.6-1.3-2.5-1.8
			c-1.2-0.6-2.5-0.7-3.8-0.4c-0.7,0.2-1.4,0.5-2,1c-0.6,0.5-1.2,1.1-1.7,1.7c-0.5,0.7-1,1.4-1.5,2.1c-0.4,0.8-0.9,1.6-1.3,2.4
			l-5.6,10.2l-2.9,5.1c-0.9,1.7-2,3.3-3.1,4.8c-1.1,1.5-2.2,2.9-3.3,4.2c-0.6,0.6-1.1,1.2-1.7,1.9s-1.1,1.1-1.6,1.7l-1.5,1.5
			l-1.4,1.3c-0.4,0.4-0.9,0.8-1.3,1.1l-1.1,0.9c-0.7,0.5-1.2,0.9-1.6,1.2l-0.6,0.4l2.1-1.7l1.1-1c0.4-0.4,0.8-0.7,1.2-1.1l1.4-1.3
			l1.5-1.5c0.5-0.5,1-1.1,1.6-1.7s1.1-1.2,1.6-1.9c1.1-1.3,2.1-2.7,3.2-4.2c1.1-1.5,2.1-3.1,3-4.8l2.9-5.2l5.7-10.1
			c0.5-0.8,0.9-1.6,1.4-2.4c0.5-0.8,1-1.5,1.6-2.2c0.5-0.6,1.2-1.2,1.8-1.7c0.6-0.5,1.4-0.8,2.1-1.1c0.7-0.2,1.5-0.2,2.2-0.1
			c0.6,0.1,1.3,0.3,1.9,0.6c0.9,0.5,1.7,1.2,2.4,2c0.5,0.5,0.9,1,1.2,1.6C171.4,402.7,171.5,402.9,171.5,402.9z"/>
		
			<linearGradient id="SVGID_16_" gradientUnits="userSpaceOnUse" x1="-297.2892" y1="1277.5961" x2="-259.0214" y2="1210.4825" gradientTransform="matrix(0.51 0.86 0.86 -0.51 -772.1 1229.27)">
			<stop  offset="0" style="stop-color:#AED13E"/>
			<stop  offset="1" style="stop-color:#3EB449"/>
		</linearGradient>
		<path class="st24" d="M197.9,335.1l-26.8,47.9c-2.5,4.5-7.3,7.4-12.6,7.4l-16.6,0.1c-4,0-7.7-2.1-9.7-5.5l-10.8-18.2
			c-5.7-9.6,17.2-4,23.3,5.4c0.2,0.2,2.3,3.9,2.3,3.9l6.9-11.8c9-15.7,24.6-26.4,42.5-29L197.9,335.1z"/>
		
			<linearGradient id="SVGID_17_" gradientUnits="userSpaceOnUse" x1="-289.7537" y1="1217.49" x2="-260.2436" y2="1217.49" gradientTransform="matrix(0.51 0.86 0.86 -0.51 -772.1 1229.27)">
			<stop  offset="0" style="stop-color:#3B9E48"/>
			<stop  offset="1" style="stop-color:#056A38"/>
		</linearGradient>
		<path class="st25" d="M147.2,376l-2.7,4.7c0,0-6.8,13.2-14.6,0l-8.3-14c-5.7-9.6,17.2-4,23.3,5.4C145.1,372.4,147.2,376,147.2,376
			"/>
		
			<linearGradient id="SVGID_18_" gradientUnits="userSpaceOnUse" x1="-491.6996" y1="-23.1494" x2="-491.5397" y2="17.6206" gradientTransform="matrix(1.099531e-02 -0.9999 -0.9999 -1.099531e-02 153.4943 -125.6545)">
			<stop  offset="0" style="stop-color:#DCE23C"/>
			<stop  offset="1" style="stop-color:#3EB449"/>
		</linearGradient>
		<path class="st26" d="M130.6,381.9c0,0,0.1,0.2,0.4,0.6c0.4,0.5,0.8,1,1.3,1.5c0.7,0.7,1.5,1.4,2.4,1.9c1.2,0.6,2.5,0.8,3.8,0.4
			c0.7-0.2,1.4-0.5,2-1c0.6-0.5,1.2-1,1.7-1.7c0.5-0.7,1.1-1.4,1.5-2.1c0.4-0.7,0.9-1.6,1.4-2.4l5.7-10.1l3-5.1c1-1.7,2-3.3,3.2-4.8
			c1.1-1.5,2.3-2.9,3.4-4.2c0.6-0.6,1.1-1.2,1.7-1.8s1.1-1.1,1.6-1.6l1.6-1.5l1.5-1.2c0.4-0.4,0.9-0.7,1.3-1.1l1.1-0.9
			c0.7-0.5,1.3-0.9,1.6-1.2l0.6-0.4l-2.2,1.8l-1.1,0.9c-0.4,0.3-0.8,0.7-1.3,1.1l-1.4,1.3l-1.5,1.5c-0.5,0.5-1,1.1-1.6,1.7
			s-1.1,1.2-1.6,1.9c-1.1,1.3-2.2,2.7-3.3,4.2c-1.1,1.5-2.1,3.1-3.1,4.8l-2.9,5.1l-5.9,10c-0.5,0.8-0.9,1.6-1.4,2.4
			c-0.5,0.7-1,1.4-1.6,2.1c-0.6,0.6-1.2,1.2-1.9,1.7c-0.6,0.5-1.4,0.8-2.1,1c-0.7,0.2-1.5,0.2-2.2,0.1c-0.6-0.1-1.3-0.3-1.8-0.7
			c-0.9-0.5-1.7-1.2-2.4-2c-0.5-0.5-0.9-1-1.2-1.6C130.7,382.1,130.6,381.9,130.6,381.9z"/>
		
			<linearGradient id="SVGID_19_" gradientUnits="userSpaceOnUse" x1="-768.5539" y1="920.8218" x2="-768.5539" y2="978.0698" gradientTransform="matrix(-1.483473e-02 0.9999 0.9999 1.483473e-02 -791.8588 1117.105)">
			<stop  offset="0" style="stop-color:#3B9E48"/>
			<stop  offset="1" style="stop-color:#056A38"/>
		</linearGradient>
		<path class="st27" d="M197.9,335.1l-1.4,0.2c-4.2,0.6-8.3,1.6-12.3,3.1l-24.9,44.3c-2.6,4.5-7.4,7.4-12.6,7.4h-6.8
			c0.7,0.1,1.3,0.2,2,0.2h16.6c5.2,0,10-2.8,12.6-7.4L197.9,335.1"/>
		<path class="st28" d="M193.6,399.5l0.1,2h0.1l0.7-2l12-26.8h7.8l-18,36.7h-10.3l-7-36.7h10.5L193.6,399.5z"/>
		<path class="st28" d="M222.6,396.1l-2,13.3h-7.3l5.5-36.7h14c4,0,7.2,1.1,9.3,3.3c2.2,2.2,3.1,5.4,2.5,8.5
			c-0.4,3.4-2.2,6.5-4.9,8.6c-3,2.2-6.7,3.3-10.5,3.1L222.6,396.1z M223.5,390.4h6.7c3.6,0.2,6.6-2.4,7.1-6c0.3-1.5,0-3.1-0.9-4.4
			c-0.9-1.1-2.3-1.7-4.4-1.7h-6.7L223.5,390.4z"/>
		<path class="st28" d="M257.3,409.4H244l6.3-36.7h13.3L257.3,409.4z"/>
		<path class="st28" d="M191,412h-2.2v6h-0.5v-6H186v-0.5h5L191,412z"/>
		<path class="st28" d="M198,414.9h-2.9v2.7h3.4v0.4h-3.9v-6.5h3.9v0.5h-3.4v2.4h2.9V414.9z"/>
		<path class="st28" d="M206.6,416L206.6,416c0,0.6-0.2,1.1-0.6,1.5c-0.5,0.4-1.1,0.6-1.7,0.6c-0.7,0-1.3-0.3-1.8-0.8
			c-0.5-0.6-0.7-1.3-0.7-2v-1.1c0-0.7,0.2-1.4,0.7-2c0.4-0.5,1.1-0.8,1.8-0.8c0.6,0,1.2,0.2,1.7,0.5c0.4,0.4,0.7,1,0.6,1.5l0,0h-0.5
			c0-0.5-0.2-0.9-0.5-1.2c-0.4-0.3-0.8-0.5-1.3-0.4c-0.5,0-1,0.2-1.4,0.7c-0.4,0.5-0.5,1.1-0.5,1.7v1.1c0,0.6,0.2,1.2,0.6,1.7
			c0.3,0.4,0.8,0.7,1.4,0.7c0.5,0,0.9-0.1,1.3-0.4c0.3-0.3,0.5-0.8,0.5-1.2L206.6,416z"/>
		<path class="st28" d="M215.4,418h-0.5l-3.7-5.6l0,0v5.6h-0.5v-6.5h0.5l3.7,5.5l0,0v-5.5h0.5V418z"/>
		<path class="st28" d="M224.4,415.3c0,0.7-0.2,1.4-0.7,2c-0.5,0.5-1.1,0.8-1.9,0.8c-0.7,0-1.4-0.3-1.8-0.8c-0.5-0.6-0.7-1.3-0.7-2
			v-1.1c0-0.7,0.2-1.4,0.7-2c0.5-0.5,1.1-0.8,1.8-0.8c0.7,0,1.4,0.3,1.9,0.8c0.5,0.6,0.7,1.3,0.7,2V415.3z M223.8,414.2
			c0-0.6-0.2-1.2-0.5-1.7c-0.4-0.4-0.9-0.7-1.5-0.6c-0.6,0-1.1,0.2-1.4,0.6c-0.4,0.5-0.5,1.1-0.5,1.7v1.1c0,0.6,0.2,1.2,0.5,1.7
			c0.4,0.4,0.9,0.7,1.4,0.6c0.6,0,1.1-0.2,1.5-0.6c0.4-0.5,0.6-1.1,0.5-1.7V414.2z"/>
		<path class="st28" d="M228.9,417.6h3.4v0.4h-3.9v-6.5h0.5L228.9,417.6z"/>
		<path class="st28" d="M240.4,415.3c0,0.7-0.2,1.4-0.7,2c-0.5,0.5-1.1,0.8-1.9,0.8c-0.7,0-1.4-0.3-1.8-0.8c-0.5-0.6-0.7-1.3-0.7-2
			v-1.1c0-0.7,0.2-1.4,0.7-2c0.5-0.5,1.1-0.8,1.8-0.8c0.7,0,1.4,0.3,1.9,0.8c0.5,0.6,0.7,1.3,0.7,2V415.3z M239.9,414.2
			c0-0.6-0.2-1.2-0.5-1.7c-0.4-0.4-0.9-0.7-1.5-0.6c-0.6,0-1.1,0.2-1.4,0.6c-0.4,0.5-0.5,1.1-0.5,1.7v1.1c0,0.6,0.2,1.2,0.5,1.7
			c0.4,0.4,0.9,0.7,1.4,0.6c0.6,0,1.1-0.2,1.5-0.6c0.4-0.5,0.6-1.1,0.5-1.7V414.2z"/>
		<path class="st28" d="M248.9,417.2c-0.2,0.3-0.5,0.5-0.8,0.7c-0.5,0.2-1,0.3-1.5,0.3c-0.7,0-1.4-0.3-1.8-0.8
			c-0.5-0.5-0.7-1.3-0.7-2v-1.2c0-0.7,0.2-1.4,0.7-2c0.5-0.5,1.1-0.8,1.8-0.8c0.6,0,1.2,0.2,1.7,0.6c0.4,0.4,0.6,0.9,0.6,1.4l0,0
			h-0.5c0-0.4-0.2-0.8-0.5-1.1c-0.4-0.3-0.8-0.5-1.3-0.4c-0.5,0-1.1,0.2-1.4,0.6c-0.4,0.5-0.6,1-0.5,1.6v1.2c0,0.6,0.2,1.2,0.6,1.7
			c0.4,0.4,0.9,0.7,1.5,0.6c0.4,0,0.8-0.1,1.1-0.2c0.2-0.1,0.4-0.3,0.6-0.5v-1.7h-1.8v-0.5h2.3L248.9,417.2z"/>
		<path class="st28" d="M253.9,418h-0.5v-6.5h0.5V418z"/>
		<path class="st28" d="M261.7,416.2h-2.9l-0.7,1.8h-0.5l2.4-6.5h0.5l2.4,6.5h-0.5L261.7,416.2z M259,415.7h2.5l-1.2-3.5l0,0
			L259,415.7z"/>
		<path class="st29" d="M246.4,72.3c-5.8,33.5-37.6,55.9-71.1,50.1c-25.6-4.4-45.7-24.5-50.1-50.1H0.3v472h383v-472L246.4,72.3z"/>
		<path class="st29" d="M185.8,123.3c34,0,61.6-27.5,61.6-61.5c0-34-27.5-61.6-61.5-61.6s-61.6,27.5-61.6,61.5
			c0,3.6,0.3,7.1,0.9,10.6C130.3,101.8,155.9,123.3,185.8,123.3z"/>
	</g>
</g>
</svg>
