<svg xmlns="http://www.w3.org/2000/svg" xmlns:xlink="http://www.w3.org/1999/xlink" viewBox="0 0 383.57 544.57"><defs><style>.cls-1,.cls-20,.cls-31{fill:none;}.cls-2{opacity:0.8;}.cls-3{fill:#333;}.cls-4{fill:#8fc642;stroke-width:0.28px;opacity:0.5;}.cls-20,.cls-4{stroke:#e6e6e5;}.cls-20,.cls-31,.cls-4{stroke-miterlimit:10;}.cls-5{clip-path:url(#clip-path);}.cls-6{fill:url(#Sfumatura_senza_nome_87);}.cls-7{fill:url(#Sfumatura_senza_nome_18);}.cls-24,.cls-8{opacity:0.49;}.cls-8{fill:url(#Sfumatura_senza_nome_62);}.cls-9{fill:url(#Sfumatura_senza_nome_86);}.cls-10{fill:url(#Sfumatura_senza_nome_209);}.cls-11{fill:url(#Sfumatura_senza_nome_191);}.cls-12{fill:url(#Sfumatura_senza_nome_208);}.cls-13,.cls-29{opacity:0.64;}.cls-13{fill:url(#Sfumatura_senza_nome_191-2);}.cls-14,.cls-16,.cls-17{fill:#e6e6e5;}.cls-14,.cls-15{opacity:0.7;}.cls-17{font-size:12px;font-family:MuseoSans-100, Museo Sans;}.cls-18{letter-spacing:0em;}.cls-19{letter-spacing:0em;}.cls-20,.cls-31{stroke-width:0.57px;}.cls-21{fill:url(#Sfumatura_senza_nome_209-2);}.cls-22{fill:url(#Sfumatura_senza_nome_87-2);}.cls-23{fill:url(#Sfumatura_senza_nome_18-2);}.cls-24{fill:url(#Sfumatura_senza_nome_62-2);}.cls-25{fill:url(#Sfumatura_senza_nome_86-2);}.cls-26{fill:url(#Sfumatura_senza_nome_209-3);}.cls-27{fill:url(#Sfumatura_senza_nome_191-3);}.cls-28{fill:url(#Sfumatura_senza_nome_208-2);}.cls-29{fill:url(#Sfumatura_senza_nome_191-4);}.cls-30{fill:#e6e7e8;}.cls-31{stroke:#e6e7e8;}</style><clipPath id="clip-path"><circle class="cls-1" cx="185.78" cy="61.78" r="52.5"/></clipPath><linearGradient id="Sfumatura_senza_nome_87" x1="309.87" y1="376.19" x2="309.87" y2="316.89" gradientTransform="matrix(-0.52, -0.86, 0.86, -0.52, 41.12, 528.41)" gradientUnits="userSpaceOnUse"><stop offset="0" stop-color="#2175bb"/><stop offset="1" stop-color="#40c3d9"/></linearGradient><linearGradient id="Sfumatura_senza_nome_18" x1="293.59" y1="369.92" x2="314.97" y2="369.92" gradientTransform="matrix(-0.52, -0.86, 0.86, -0.52, 41.12, 528.41)" gradientUnits="userSpaceOnUse"><stop offset="0" stop-color="#2aa7df"/><stop offset="1" stop-color="#293d8f"/></linearGradient><linearGradient id="Sfumatura_senza_nome_62" x1="354.2" y1="296.03" x2="354.2" y2="254.54" gradientTransform="translate(-100.94 436.97) rotate(-89.89)" gradientUnits="userSpaceOnUse"><stop offset="0" stop-color="#2aa7df" stop-opacity="0"/><stop offset="0.09" stop-color="#4cb5e4" stop-opacity="0.16"/><stop offset="0.23" stop-color="#7bc8eb" stop-opacity="0.38"/><stop offset="0.36" stop-color="#a3d9f1" stop-opacity="0.57"/><stop offset="0.5" stop-color="#c4e7f6" stop-opacity="0.72"/><stop offset="0.63" stop-color="#def1fa" stop-opacity="0.84"/><stop offset="0.76" stop-color="#f0f9fd" stop-opacity="0.93"/><stop offset="0.89" stop-color="#fbfdfe" stop-opacity="0.98"/><stop offset="1" stop-color="#fff"/></linearGradient><linearGradient id="Sfumatura_senza_nome_86" x1="356.71" y1="274.13" x2="356.59" y2="303.68" gradientTransform="translate(-99.97 438.07) rotate(-90.11)" gradientUnits="userSpaceOnUse"><stop offset="0" stop-color="#89cede"/><stop offset="1" stop-color="#23addf"/></linearGradient><linearGradient id="Sfumatura_senza_nome_209" x1="-403.71" y1="-125.81" x2="-375.98" y2="-77.18" gradientTransform="matrix(0.51, 0.86, -0.86, 0.51, 302.91, 422.02)" gradientUnits="userSpaceOnUse"><stop offset="0" stop-color="#aed13e"/><stop offset="1" stop-color="#3eb449"/></linearGradient><linearGradient id="Sfumatura_senza_nome_191" x1="-398.31" y1="-82.22" x2="-376.93" y2="-82.22" gradientTransform="matrix(0.51, 0.86, -0.86, 0.51, 302.91, 422.02)" gradientUnits="userSpaceOnUse"><stop offset="0" stop-color="#3b9e48"/><stop offset="1" stop-color="#056a38"/></linearGradient><linearGradient id="Sfumatura_senza_nome_208" x1="857.84" y1="94.11" x2="857.96" y2="64.56" gradientTransform="translate(99.11 899.36) rotate(-89.37)" gradientUnits="userSpaceOnUse"><stop offset="0" stop-color="#dce23c"/><stop offset="1" stop-color="#3eb449"/></linearGradient><linearGradient id="Sfumatura_senza_nome_191-2" x1="-580.23" y1="627.93" x2="-580.23" y2="586.44" gradientTransform="translate(799.43 629.25) rotate(90.85)" xlink:href="#Sfumatura_senza_nome_191"/><linearGradient id="Sfumatura_senza_nome_209-2" x1="244.7" y1="391.07" x2="268" y2="391.07" gradientTransform="matrix(1, 0, 0, 1, 0, 0)" xlink:href="#Sfumatura_senza_nome_209"/><linearGradient id="Sfumatura_senza_nome_87-2" x1="40.97" y1="176.44" x2="40.97" y2="94.62" xlink:href="#Sfumatura_senza_nome_87"/><linearGradient id="Sfumatura_senza_nome_18-2" x1="18.51" y1="167.79" x2="48.02" y2="167.79" xlink:href="#Sfumatura_senza_nome_18"/><linearGradient id="Sfumatura_senza_nome_62-2" x1="15.01" y1="262.69" x2="15.01" y2="205.45" xlink:href="#Sfumatura_senza_nome_62"/><linearGradient id="Sfumatura_senza_nome_86-2" x1="18.62" y1="231.01" x2="18.46" y2="271.77" xlink:href="#Sfumatura_senza_nome_86"/><linearGradient id="Sfumatura_senza_nome_209-3" x1="-151.17" y1="59.04" x2="-112.91" y2="126.14" xlink:href="#Sfumatura_senza_nome_209"/><linearGradient id="Sfumatura_senza_nome_191-3" x1="-143.73" y1="119.18" x2="-114.23" y2="119.18" xlink:href="#Sfumatura_senza_nome_191"/><linearGradient id="Sfumatura_senza_nome_208-2" x1="533.84" y1="66.26" x2="534" y2="25.49" xlink:href="#Sfumatura_senza_nome_208"/><linearGradient id="Sfumatura_senza_nome_191-4" x1="-257.11" y1="663.05" x2="-257.11" y2="605.82" gradientTransform="translate(799.43 629.25) rotate(90.85)" xlink:href="#Sfumatura_senza_nome_191"/></defs><title>interface1Asset 2login</title><g id="Layer_2" data-name="Layer 2"><g id="Isolation_Mode" data-name="Isolation Mode"><g class="cls-2"><path class="cls-3" d="M246.37,72.28a61.49,61.49,0,0,1-121.18,0H.28v472h383v-472Z"/><path class="cls-1" d="M185.78,123.28a61.55,61.55,0,1,0-60.59-51A61.5,61.5,0,0,0,185.78,123.28Z"/></g><rect class="cls-4" x="13.78" y="160.78" width="346" height="53" rx="12" ry="12"/><rect class="cls-4" x="14.28" y="233.28" width="346" height="53" rx="12" ry="12"/><g class="cls-5"><path class="cls-6" d="M154.27,103.57l19.07-34.9a10.47,10.47,0,0,1,9-5.45l12-.17A8.13,8.13,0,0,1,201.43,67l7.94,13.1c4.21,7-12.46,3-16.93-3.77-.11-.17-1.71-2.79-1.71-2.79l-4.86,8.59a42.68,42.68,0,0,1-30.57,21.32Z"/><path class="cls-7" d="M190.73,73.52l1.93-3.41s4.83-9.64,10.61-.1l6.11,10.08c4.21,7-12.47,3-16.94-3.78-.11-.17-1.71-2.79-1.71-2.79"/><path class="cls-8" d="M164.2,101,181.87,68.7a10.47,10.47,0,0,1,9-5.45l4.92-.07a8.12,8.12,0,0,0-1.47-.12l-12,.17a10.47,10.47,0,0,0-9,5.45l-19.07,34.9,1-.15A41.44,41.44,0,0,0,164.2,101Z"/><path class="cls-9" d="M202.83,69.17s-.1-.15-.3-.42a10.66,10.66,0,0,0-1-1.09,7,7,0,0,0-1.79-1.32,3.74,3.74,0,0,0-2.75-.27,4.31,4.31,0,0,0-1.42.76,7.47,7.47,0,0,0-1.24,1.23,13,13,0,0,0-1.07,1.52c-.31.54-.63,1.14-1,1.72l-4.09,7.35-2.1,3.71a36.63,36.63,0,0,1-2.25,3.51c-.79,1.1-1.61,2.11-2.42,3-.41.47-.81.91-1.2,1.34l-1.17,1.21L178,92.55l-1,.92c-.32.29-.65.55-.94.78l-.81.65c-.5.38-.9.66-1.17.86l-.42.3,1.52-1.25.78-.69c.28-.25.59-.51.9-.82l1-1,1.08-1.1L180,90c.38-.44.77-.89,1.16-1.36.78-.95,1.56-2,2.34-3.06a36.22,36.22,0,0,0,2.19-3.47l2.08-3.74,4.15-7.32c.34-.59.64-1.16,1-1.72a13.42,13.42,0,0,1,1.14-1.54,7.84,7.84,0,0,1,1.33-1.25,4.63,4.63,0,0,1,1.54-.77,3.67,3.67,0,0,1,1.58-.09,4.36,4.36,0,0,1,1.34.47,7.14,7.14,0,0,1,1.78,1.42,9.42,9.42,0,0,1,.9,1.14C202.74,69,202.83,69.17,202.83,69.17Z"/><path class="cls-10" d="M222,20,202.59,54.7a10.47,10.47,0,0,1-9.09,5.36l-12,0a8.13,8.13,0,0,1-7-4l-7.81-13.18c-4.14-7,12.49-2.89,16.9,3.94.11.17,1.68,2.81,1.68,2.81l4.94-8.54a42.68,42.68,0,0,1,30.78-21Z"/><path class="cls-11" d="M185.24,49.69l-2,3.39s-4.92,9.6-10.61,0l-6-10.14c-4.14-7,12.5-2.89,16.9,3.94.11.18,1.68,2.81,1.68,2.81"/><path class="cls-12" d="M173.17,53.92s.09.15.29.42a10.66,10.66,0,0,0,.94,1.1,7,7,0,0,0,1.78,1.34,3.74,3.74,0,0,0,2.75.3,4.31,4.31,0,0,0,1.43-.74,7.47,7.47,0,0,0,1.26-1.21,13,13,0,0,0,1.09-1.51c.32-.54.65-1.13,1-1.7l4.18-7.3L190,40.93a36.63,36.63,0,0,1,2.3-3.48c.8-1.09,1.64-2.09,2.46-3,.41-.46.82-.9,1.22-1.32l1.19-1.19,1.13-1.06,1.06-.91c.33-.29.65-.54,1-.77l.82-.64,1.18-.85.42-.3-1.54,1.23-.79.68c-.29.25-.6.51-.91.81l-1,.95-1.09,1.08-1.15,1.21c-.38.43-.78.88-1.18,1.34-.79.94-1.58,2-2.37,3a36.23,36.23,0,0,0-2.23,3.44l-2.13,3.71-4.24,7.26c-.35.58-.66,1.15-1,1.71a13.42,13.42,0,0,1-1.16,1.53,7.84,7.84,0,0,1-1.35,1.24,4.63,4.63,0,0,1-1.55.75,3.67,3.67,0,0,1-1.59.07,4.36,4.36,0,0,1-1.34-.49,7.15,7.15,0,0,1-1.76-1.44,9.43,9.43,0,0,1-.89-1.16C173.25,54.08,173.17,53.92,173.17,53.92Z"/><path class="cls-13" d="M222,20.05l-1,.13A41.44,41.44,0,0,0,212,22.47l-18.08,32.1a10.47,10.47,0,0,1-9.11,5.33h-4.92a8.12,8.12,0,0,0,1.46.13h12a10.47,10.47,0,0,0,9.11-5.33L222,20.05"/></g><path class="cls-14" d="M333.4,185.68a6.61,6.61,0,1,0-6.17,0,10.34,10.34,0,0,0-7.22,9.83v5.19h20.6v-5.19A10.34,10.34,0,0,0,333.4,185.68Z"/><g class="cls-15"><path class="cls-16" d="M340.07,255h-1.88v-2.36a7.88,7.88,0,1,0-15.77,0V255h-1.89a2.69,2.69,0,0,0-2.68,2.68V273a2.7,2.7,0,0,0,2.68,2.71h19.54a2.71,2.71,0,0,0,2.71-2.71V257.71A2.7,2.7,0,0,0,340.07,255ZM326,252.67a4.32,4.32,0,1,1,8.63,0V255H326Zm5.78,16v3.92a.3.3,0,0,1-.31.29h-1.88a.29.29,0,0,1-.28-.29v-3.92a3.44,3.44,0,1,1,2.47,0Z"/></g><text class="cls-17" transform="translate(34.28 323.73)"><tspan class="cls-18">L</tspan><tspan x="6.07" y="0">embrar meu usuário</tspan></text><text class="cls-17" transform="translate(244.28 323.73)">Esque<tspan class="cls-19" x="32.65" y="0">c</tspan><tspan x="39.23" y="0">eu sua senha?</tspan></text><circle class="cls-20" cx="22.78" cy="319.89" r="8.5"/><circle class="cls-16" cx="22.78" cy="319.89" r="5.67"/><path class="cls-21" d="M261.69,409.41h-17l6.3-36.68h17Z"/><path class="cls-22" d="M104.48,450.37l26.3-48.14a14.44,14.44,0,0,1,12.47-7.52l16.55-.23a11.21,11.21,0,0,1,9.75,5.4L180.51,418c5.81,9.59-17.2,4.16-23.36-5.2-.16-.24-2.35-3.85-2.35-3.85l-6.7,11.85a58.88,58.88,0,0,1-42.17,29.42Z"/><path class="cls-23" d="M154.79,408.91l2.66-4.71s6.66-13.31,14.63-.14L180.51,418c5.81,9.59-17.2,4.16-23.37-5.21-.16-.24-2.35-3.85-2.35-3.85"/><path class="cls-24" d="M118.19,446.86l24.37-44.61A14.44,14.44,0,0,1,155,394.74l6.79-.09a11.21,11.21,0,0,0-2-.16l-16.55.23a14.44,14.44,0,0,0-12.47,7.52l-26.3,48.14,1.43-.2A57.17,57.17,0,0,0,118.19,446.86Z"/><path class="cls-25" d="M171.48,402.91s-.13-.21-.41-.58a14.7,14.7,0,0,0-1.32-1.5,9.66,9.66,0,0,0-2.47-1.82,5.16,5.16,0,0,0-3.8-.37,5.94,5.94,0,0,0-2,1,10.31,10.31,0,0,0-1.71,1.7,18,18,0,0,0-1.47,2.1c-.43.75-.87,1.57-1.32,2.37L151.38,416l-2.9,5.12a50.54,50.54,0,0,1-3.11,4.84c-1.09,1.51-2.22,2.91-3.33,4.2-.56.64-1.12,1.25-1.66,1.85s-1.09,1.14-1.61,1.66l-1.54,1.48-1.44,1.27c-.45.41-.89.75-1.3,1.08l-1.11.9c-.69.52-1.25.91-1.62,1.19l-.57.42,2.1-1.72,1.07-.95c.39-.35.82-.71,1.24-1.13L137,434.9l1.48-1.51c.51-.54,1-1.11,1.56-1.69s1.06-1.22,1.6-1.87c1.07-1.31,2.15-2.73,3.22-4.23a50,50,0,0,0,3-4.79l2.87-5.16,5.72-10.1c.47-.81.88-1.59,1.37-2.38A18.51,18.51,0,0,1,159.4,401a10.81,10.81,0,0,1,1.84-1.73,6.39,6.39,0,0,1,2.13-1.06,5.06,5.06,0,0,1,2.19-.12,6,6,0,0,1,1.85.65,9.86,9.86,0,0,1,2.45,2,13,13,0,0,1,1.25,1.58C171.36,402.7,171.48,402.91,171.48,402.91Z"/><path class="cls-26" d="M197.92,335.06l-26.78,47.88a14.44,14.44,0,0,1-12.55,7.39L142,390.4a11.22,11.22,0,0,1-9.7-5.5l-10.77-18.18c-5.71-9.65,17.24-4,23.31,5.43.16.24,2.31,3.88,2.31,3.88L154,364.25a58.88,58.88,0,0,1,42.46-29Z"/><path class="cls-27" d="M147.21,376l-2.71,4.68s-6.79,13.24-14.63,0l-8.29-14c-5.71-9.65,17.24-4,23.31,5.44.16.24,2.31,3.88,2.31,3.88"/><path class="cls-28" d="M130.56,381.87s.13.21.4.58a14.71,14.71,0,0,0,1.3,1.52,9.66,9.66,0,0,0,2.45,1.85,5.16,5.16,0,0,0,3.79.42,5.94,5.94,0,0,0,2-1,10.31,10.31,0,0,0,1.73-1.67,17.94,17.94,0,0,0,1.5-2.08c.44-.74.89-1.56,1.35-2.35L150.82,369l3-5.08a50.54,50.54,0,0,1,3.17-4.8c1.11-1.5,2.26-2.88,3.39-4.16.57-.64,1.14-1.24,1.68-1.82s1.11-1.12,1.64-1.64l1.56-1.46,1.46-1.25c.45-.4.9-.74,1.31-1.07l1.13-.89c.7-.51,1.26-.9,1.63-1.17l.58-.41L169.21,347l-1.08.93c-.39.34-.83.7-1.26,1.12l-1.4,1.31-1.5,1.49c-.51.53-1,1.1-1.58,1.67s-1.08,1.21-1.62,1.85c-1.09,1.29-2.18,2.7-3.28,4.18a50,50,0,0,0-3.08,4.75l-2.93,5.13-5.85,10c-.48.8-.9,1.58-1.4,2.36a18.51,18.51,0,0,1-1.6,2.11,10.81,10.81,0,0,1-1.86,1.71,6.39,6.39,0,0,1-2.14,1,5.06,5.06,0,0,1-2.19.1,6,6,0,0,1-1.84-.67,9.86,9.86,0,0,1-2.43-2,13,13,0,0,1-1.23-1.6C130.67,382.09,130.56,381.87,130.56,381.87Z"/><path class="cls-29" d="M197.92,335.15l-1.44.18a57.17,57.17,0,0,0-12.32,3.15l-24.95,44.29a14.44,14.44,0,0,1-12.57,7.36h-6.79a11.2,11.2,0,0,0,2,.19l16.55,0A14.44,14.44,0,0,0,171,382.95l26.92-47.8"/><path class="cls-30" d="M193.55,399.46l.15,2,.15,0,.73-2,12-26.81h7.76l-18,36.68H186.08l-7-36.68h10.49Z"/><path class="cls-30" d="M222.65,396.11l-2,13.3H213.3l5.49-36.68h14q6.07,0,9.33,3.26a9.37,9.37,0,0,1,2.51,8.45,12.73,12.73,0,0,1-4.89,8.57,16.74,16.74,0,0,1-10.46,3.1Zm.86-5.67h6.68a6.9,6.9,0,0,0,7.13-5.95,5.62,5.62,0,0,0-.89-4.42q-1.3-1.67-4.42-1.68h-6.68Z"/><path class="cls-30" d="M257.33,409.41H244l6.3-36.68h13.35Z"/><path class="cls-30" d="M191,412h-2.21v6h-.53v-6h-2.29v-.45h5Z"/><path class="cls-30" d="M198,414.89h-2.91v2.7h3.37V418h-3.91v-6.5h3.88V412h-3.35v2.44H198Z"/><path class="cls-30" d="M206.65,416v0a1.89,1.89,0,0,1-.63,1.53,2.45,2.45,0,0,1-1.69.57,2.18,2.18,0,0,1-1.75-.78,3,3,0,0,1-.66-2v-1.06a3,3,0,0,1,.66-2,2.18,2.18,0,0,1,1.75-.79A2.47,2.47,0,0,1,206,412a1.89,1.89,0,0,1,.62,1.54v0h-.5a1.58,1.58,0,0,0-.48-1.22,1.88,1.88,0,0,0-1.32-.44,1.65,1.65,0,0,0-1.37.66,2.67,2.67,0,0,0-.52,1.69v1.07A2.69,2.69,0,0,0,203,417a1.65,1.65,0,0,0,1.37.66,1.91,1.91,0,0,0,1.32-.43,1.58,1.58,0,0,0,.48-1.24Z"/><path class="cls-30" d="M215.38,418h-.54l-3.69-5.56h0V418h-.54v-6.5h.54l3.69,5.55h0v-5.54h.54Z"/><path class="cls-30" d="M224.37,415.32a3,3,0,0,1-.69,2,2.35,2.35,0,0,1-1.85.78,2.3,2.3,0,0,1-1.82-.78,3,3,0,0,1-.68-2v-1.06a3,3,0,0,1,.68-2,2.29,2.29,0,0,1,1.82-.78,2.35,2.35,0,0,1,1.85.78,3,3,0,0,1,.69,2Zm-.53-1.07a2.57,2.57,0,0,0-.53-1.7,1.82,1.82,0,0,0-1.48-.64,1.75,1.75,0,0,0-1.45.64,2.63,2.63,0,0,0-.52,1.7v1.07a2.63,2.63,0,0,0,.52,1.71,1.76,1.76,0,0,0,1.45.64,1.81,1.81,0,0,0,1.48-.64,2.6,2.6,0,0,0,.53-1.71Z"/><path class="cls-30" d="M228.85,417.59h3.36V418h-3.89v-6.5h.54Z"/><path class="cls-30" d="M240.38,415.32a3,3,0,0,1-.69,2,2.35,2.35,0,0,1-1.85.78,2.3,2.3,0,0,1-1.82-.78,3,3,0,0,1-.68-2v-1.06a3,3,0,0,1,.68-2,2.29,2.29,0,0,1,1.82-.78,2.35,2.35,0,0,1,1.85.78,3,3,0,0,1,.69,2Zm-.53-1.07a2.57,2.57,0,0,0-.53-1.7,1.82,1.82,0,0,0-1.48-.64,1.75,1.75,0,0,0-1.45.64,2.63,2.63,0,0,0-.52,1.7v1.07a2.63,2.63,0,0,0,.52,1.71,1.76,1.76,0,0,0,1.45.64,1.81,1.81,0,0,0,1.48-.64,2.6,2.6,0,0,0,.53-1.71Z"/><path class="cls-30" d="M248.95,417.16a2,2,0,0,1-.79.66,3.07,3.07,0,0,1-1.46.31,2.38,2.38,0,0,1-1.83-.77,2.82,2.82,0,0,1-.71-2v-1.19a2.8,2.8,0,0,1,.69-2,2.31,2.31,0,0,1,1.79-.76,2.43,2.43,0,0,1,1.68.56,1.77,1.77,0,0,1,.6,1.42v0h-.49a1.46,1.46,0,0,0-.46-1.11,1.85,1.85,0,0,0-1.32-.44,1.76,1.76,0,0,0-1.41.63,2.43,2.43,0,0,0-.54,1.62v1.2a2.48,2.48,0,0,0,.56,1.67,1.83,1.83,0,0,0,1.46.65,2.62,2.62,0,0,0,1.12-.2,1.38,1.38,0,0,0,.6-.48v-1.66h-1.75v-.46h2.28Z"/><path class="cls-30" d="M253.85,418h-.54v-6.5h.54Z"/><path class="cls-30" d="M261.69,416.22h-2.85l-.66,1.81h-.55l2.39-6.5h.5l2.37,6.5h-.55Zm-2.68-.48h2.51l-1.23-3.45h0Z"/><path class="cls-31" d="M246.37,72.28a61.49,61.49,0,0,1-121.18,0H.28v472h383v-472Z"/><path class="cls-31" d="M185.78,123.28a61.55,61.55,0,1,0-60.59-51A61.5,61.5,0,0,0,185.78,123.28Z"/></g></g></svg>