<svg xmlns="http://www.w3.org/2000/svg" viewBox="0 0 193.1 54.47"><defs><style>.cls-1{fill:#425f9c;}.cls-1,.cls-2,.cls-3,.cls-4{fill-rule:evenodd;}.cls-2{fill:#fefefe;}.cls-3{fill:#31c4ed;}.cls-4{fill:#1daf7f;}</style></defs><title>midiaAsset 1social</title><g id="Layer_2" data-name="Layer 2"><g id="_15" data-name="15"><path class="cls-1" d="M9.08,0H45.39a9.11,9.11,0,0,1,9.08,9.08V45.39a9.11,9.11,0,0,1-9.08,9.08H9.08A9.1,9.1,0,0,1,0,45.39V9.08A9.11,9.11,0,0,1,9.08,0Z"/><path class="cls-2" d="M29.63,20.86V18.28a1.37,1.37,0,0,1,1.43-1.55h3.62V11.2l-5,0c-5.54,0-6.79,4.12-6.79,6.76v2.92H19.7v6.45h3.23V43.45h6.46V27.31h4.79l.23-2.54.36-3.92Z"/><path class="cls-3" d="M147.71,0H184a9.1,9.1,0,0,1,9.08,9.08V45.39A9.1,9.1,0,0,1,184,54.47H147.71a9.1,9.1,0,0,1-9.08-9.08V9.08A9.11,9.11,0,0,1,147.71,0Z"/><path class="cls-2" d="M174.09,34A7,7,0,0,1,171,36.3a12.77,12.77,0,0,1-4.81.83A11.93,11.93,0,0,1,160.64,36a7.1,7.1,0,0,1-2.53-2.22,4.79,4.79,0,0,1-1-2.74,1.89,1.89,0,0,1,.65-1.43,2.28,2.28,0,0,1,1.6-.59,2.07,2.07,0,0,1,1.36.46,3.48,3.48,0,0,1,.9,1.31,7.78,7.78,0,0,0,.88,1.54,3.36,3.36,0,0,0,1.29,1,5.38,5.38,0,0,0,2.23.39,5.47,5.47,0,0,0,3.1-.79,2.23,2.23,0,0,0,1.14-1.9,1.85,1.85,0,0,0-.59-1.44,4.26,4.26,0,0,0-1.65-.89c-.7-.21-1.65-.45-2.82-.69a22.92,22.92,0,0,1-4-1.19,6.65,6.65,0,0,1-2.65-1.91A4.19,4.19,0,0,1,158,24a4.94,4.94,0,0,1-.47-2.19,4.85,4.85,0,0,1,1-3.07,6.5,6.5,0,0,1,3-2,13.19,13.19,0,0,1,4.52-.7,12.28,12.28,0,0,1,3.59.47,7.84,7.84,0,0,1,2.54,1.25,5.43,5.43,0,0,1,1.5,1.66,3.59,3.59,0,0,1,.48,1.73,2.08,2.08,0,0,1-.63,1.47,2.14,2.14,0,0,1-1.59.65,1.92,1.92,0,0,1-1.32-.41,5,5,0,0,1-.92-1.21,5.19,5.19,0,0,0-1.38-1.68,4.43,4.43,0,0,0-2.57-.58,4.89,4.89,0,0,0-2.67.65,1.74,1.74,0,0,0-.95,1.45,1.3,1.3,0,0,0,.3.88,2.75,2.75,0,0,0,.92.69,6.66,6.66,0,0,0,1.24.47l.27.07c.44.11,1.06.26,1.86.44,1.25.27,2.4.56,3.4.88a11,11,0,0,1,2.63,1.19,5.16,5.16,0,0,1,1.73,1.8,5.37,5.37,0,0,1,.63,2.68A5.76,5.76,0,0,1,174.09,34Zm7.14-4a14.67,14.67,0,0,0,.36-3.26c0-.39,0-.76-.05-1.14a15.42,15.42,0,0,0-18-13.81,8.94,8.94,0,0,0-13.67,7.45,8.65,8.65,0,0,0,1.22,4.45,13.81,13.81,0,0,0-.24,1.68c0,.45-.07.91-.07,1.37a15.28,15.28,0,0,0,15.39,15.18,16,16,0,0,0,2.82-.25,9.08,9.08,0,0,0,4.22,1,8.86,8.86,0,0,0,8.93-8.8,8.67,8.67,0,0,0-.93-3.91Z"/><path class="cls-4" d="M78.4,0H114.7a9.1,9.1,0,0,1,9.08,9.08V45.39a9.1,9.1,0,0,1-9.08,9.08H78.4a9.11,9.11,0,0,1-9.08-9.08V9.08A9.11,9.11,0,0,1,78.4,0Z"/><path class="cls-2" d="M96.84,38.87a13.27,13.27,0,0,1-7.33-2.19L84.4,38.31l1.66-4.9a13.13,13.13,0,0,1-2.53-7.75c0-.43,0-.86.06-1.28a13.33,13.33,0,0,1,26.53.25c0,.33,0,.68,0,1A13.28,13.28,0,0,1,96.84,38.87Zm15.83-13.61A15.84,15.84,0,0,0,81,25q0,.34,0,.69a15.51,15.51,0,0,0,2.28,8.11l-2.86,8.44,8.77-2.79a15.87,15.87,0,0,0,23.5-13.76c0-.13,0-.27,0-.4Z"/><path class="cls-2" d="M104.1,28.83c-.39-.2-2.3-1.13-2.65-1.25s-.62-.19-.88.19-1,1.25-1.23,1.51-.45.29-.84.1a10.57,10.57,0,0,1-3.12-1.91,11.6,11.6,0,0,1-2.17-2.66c-.22-.39,0-.59.17-.79s.39-.45.59-.67c.06-.07.1-.13.14-.19a3.79,3.79,0,0,0,.24-.46.69.69,0,0,0,0-.67c-.1-.19-.87-2.09-1.19-2.86s-.65-.64-.88-.64-.49,0-.75,0a1.42,1.42,0,0,0-1,.48,4.31,4.31,0,0,0-1.36,3.22,4.8,4.8,0,0,0,.2,1.3,8.72,8.72,0,0,0,1.39,2.68c.19.25,2.68,4.27,6.64,5.81s3.94,1,4.66,1a3.9,3.9,0,0,0,2.63-1.83,3.23,3.23,0,0,0,.22-1.83c-.1-.16-.36-.25-.74-.45Z"/></g></g></svg>