<svg xmlns="http://www.w3.org/2000/svg" xmlns:xlink="http://www.w3.org/1999/xlink" viewBox="0 0 373 117.02"><defs><style>.cls-1{fill:#e6e6e6;}.cls-2{fill:#8dc641;}.cls-3{fill:url(#Sfumatura_senza_nome_87);}.cls-4{fill:url(#Sfumatura_senza_nome_18);}.cls-5{opacity:0.49;fill:url(#Sfumatura_senza_nome_62);}.cls-6{fill:url(#Sfumatura_senza_nome_86);}.cls-7{fill:url(#Sfumatura_senza_nome_209);}.cls-8{fill:url(#Sfumatura_senza_nome_191);}.cls-9{fill:url(#Sfumatura_senza_nome_208);}.cls-10{opacity:0.64;fill:url(#Sfumatura_senza_nome_191-2);}</style><linearGradient id="Sfumatura_senza_nome_87" x1="-587.63" y1="-361.95" x2="-587.63" y2="-456.31" gradientTransform="translate(-613.28 -17.85) rotate(152.9)" gradientUnits="userSpaceOnUse"><stop offset="0" stop-color="#1e75bb"/><stop offset="1" stop-color="#41c2d8"/></linearGradient><linearGradient id="Sfumatura_senza_nome_18" x1="-613.53" y1="-371.93" x2="-579.5" y2="-371.93" gradientTransform="translate(-613.28 -17.85) rotate(152.9)" gradientUnits="userSpaceOnUse"><stop offset="0" stop-color="#27a8e0"/><stop offset="1" stop-color="#293b8f"/></linearGradient><linearGradient id="Sfumatura_senza_nome_62" x1="-694.77" y1="-86.88" x2="-694.77" y2="-152.89" gradientTransform="translate(-588.9 -89.02) rotate(-175.78)" gradientUnits="userSpaceOnUse"><stop offset="0" stop-color="#27a8e0" stop-opacity="0"/><stop offset="0.09" stop-color="#49b6e5" stop-opacity="0.16"/><stop offset="0.23" stop-color="#79c9ec" stop-opacity="0.38"/><stop offset="0.36" stop-color="#a2d9f2" stop-opacity="0.57"/><stop offset="0.5" stop-color="#c3e7f6" stop-opacity="0.72"/><stop offset="0.63" stop-color="#ddf1fa" stop-opacity="0.84"/><stop offset="0.76" stop-color="#f0f9fd" stop-opacity="0.93"/><stop offset="0.89" stop-color="#fbfdfe" stop-opacity="0.98"/><stop offset="1" stop-color="#fff"/></linearGradient><linearGradient id="Sfumatura_senza_nome_86" x1="-690.43" y1="-124.76" x2="-690.61" y2="-77.75" gradientTransform="translate(-589 -88.72) rotate(-176)" gradientUnits="userSpaceOnUse"><stop offset="0" stop-color="#88cedf"/><stop offset="1" stop-color="#25addf"/></linearGradient><linearGradient id="Sfumatura_senza_nome_209" x1="-187.23" y1="-20.59" x2="-143.1" y2="56.79" gradientTransform="translate(159.85 -39.98) rotate(-26.53)" gradientUnits="userSpaceOnUse"><stop offset="0" stop-color="#aed13d"/><stop offset="1" stop-color="#3bb44a"/></linearGradient><linearGradient id="Sfumatura_senza_nome_191" x1="-178.64" y1="48.76" x2="-144.62" y2="48.76" gradientTransform="translate(159.85 -39.98) rotate(-26.53)" gradientUnits="userSpaceOnUse"><stop offset="0" stop-color="#3a9e49"/><stop offset="1" stop-color="#016938"/></linearGradient><linearGradient id="Sfumatura_senza_nome_208" x1="-167.72" y1="-278.52" x2="-167.53" y2="-325.53" gradientTransform="translate(-110.39 -258.14) rotate(-175.26)" gradientUnits="userSpaceOnUse"><stop offset="0" stop-color="#dbe139"/><stop offset="1" stop-color="#3bb44a"/></linearGradient><linearGradient id="Sfumatura_senza_nome_191-2" x1="-212.71" y1="402.89" x2="-212.71" y2="336.88" gradientTransform="translate(273.34 -314.42) rotate(4.96)" xlink:href="#Sfumatura_senza_nome_191"/></defs><title>peopleAsset 2</title><g id="Layer_2" data-name="Layer 2"><g id="Layer_1-2" data-name="Layer 1"><path class="cls-1" d="M167.61,81.88c-2.82,1.41-9.16,2.92-17.41,2.92-23.45,0-35.52-14.59-35.52-33.91,0-23.14,16.5-36,37-36,7.95,0,14,1.61,16.7,3l-3.12,12.18a33.13,33.13,0,0,0-12.88-2.52c-12.18,0-21.63,7.35-21.63,22.44,0,13.58,8,22.14,21.74,22.14a38.3,38.3,0,0,0,12.78-2.21Z"/><path class="cls-1" d="M170.83,12.34h15.3V83.79h-15.3Z"/><path class="cls-1" d="M220.44,83.79l-.91-4.93h-.3c-3.22,3.92-8.25,6-14.09,6-10,0-15.9-7.25-15.9-15.09,0-12.78,11.47-18.92,28.88-18.82v-.7c0-2.62-1.41-6.34-9-6.34a27.67,27.67,0,0,0-13.58,3.72l-2.82-9.86c3.42-1.91,10.16-4.33,19.12-4.33,16.4,0,21.64,9.66,21.64,21.23V71.81a76.3,76.3,0,0,0,.7,12Zm-1.81-23.24c-8-.1-14.29,1.81-14.29,7.75,0,3.92,2.62,5.84,6,5.84a8.35,8.35,0,0,0,7.95-5.63,11,11,0,0,0,.3-2.62Z"/><path class="cls-1" d="M239.56,50.78c0-7.25-.2-12-.4-16.2h13.18l.5,9.06h.4c2.52-7.14,8.55-10.16,13.28-10.16a15.73,15.73,0,0,1,3.22.2V48.07a21.88,21.88,0,0,0-4.13-.4c-5.64,0-9.46,3-10.47,7.75a18.09,18.09,0,0,0-.3,3.42v25h-15.3Z"/><path class="cls-2" d="M287.56,20.9c0,4.23-3.22,7.65-8.25,7.65-4.83,0-8-3.42-7.95-7.65-.1-4.43,3.12-7.75,8-7.75S287.46,16.47,287.56,20.9Zm-15.8,62.89V34.58h15.3V83.79Z"/><path class="cls-1" d="M295,83.79V45.85h-6.44V34.58H295V32.67c0-5.94,1.81-12.48,6.24-16.5,3.82-3.62,9.16-4.93,13.58-4.93a29.41,29.41,0,0,1,8.15,1L322.37,24a16.54,16.54,0,0,0-4.93-.7c-5,0-7.14,3.93-7.14,8.75v2.52h9.86V45.85H310.4V83.79Z"/><path class="cls-1" d="M338.28,34.58l7.35,24.15c.8,2.92,1.81,6.54,2.41,9.16h.3c.7-2.62,1.51-6.34,2.21-9.16l6-24.15H373L361.53,67c-7,19.52-11.77,27.37-17.31,32.3A28.21,28.21,0,0,1,329.43,106l-3.22-13a19.28,19.28,0,0,0,6.64-2.62,17.58,17.58,0,0,0,6.34-6.14,4,4,0,0,0,.8-2.21,5.55,5.55,0,0,0-.7-2.52l-18-45Z"/><path class="cls-3" d="M124.92,117,71.72,82.78a16.66,16.66,0,0,1-7.62-15l1.1-19.05a12.93,12.93,0,0,1,7-10.77l21.7-11.1C105.43,21,97.29,47,86,53.33c-.29.16-4.63,2.39-4.63,2.39l13.08,8.69a67.91,67.91,0,0,1,30.35,50.94Q124.87,116.18,124.92,117Z"/><path class="cls-4" d="M81.38,55.72l-5.2-3.45s-14.76-8.76,1-16.85l16.7-8.54C105.44,21,97.29,47,86,53.33c-.29.16-4.63,2.39-4.63,2.39"/><path class="cls-5" d="M122,101,72.72,69.24a16.66,16.66,0,0,1-7.62-15l.45-7.82a12.92,12.92,0,0,0-.35,2.31L64.1,67.81a16.66,16.66,0,0,0,7.62,15L124.92,117q0-.84-.11-1.67A65.94,65.94,0,0,0,122,101Z"/><path class="cls-6" d="M75.87,36s-.25.13-.7.43a17,17,0,0,0-1.84,1.39A11.14,11.14,0,0,0,71,40.54a6,6,0,0,0-.73,4.34,6.85,6.85,0,0,0,1,2.34,11.89,11.89,0,0,0,1.81,2.11,20.7,20.7,0,0,0,2.3,1.87c.83.56,1.73,1.13,2.62,1.72l11.2,7.32L94.92,64a58.28,58.28,0,0,1,5.31,4c1.65,1.37,3.17,2.79,4.56,4.18.69.7,1.35,1.39,2,2.06s1.22,1.35,1.78,2l1.57,1.89,1.34,1.76c.43.55.79,1.09,1.14,1.58l.95,1.36c.54.84.95,1.51,1.23,2l.43.69-1.81-2.56-1-1.31c-.37-.48-.75-1-1.2-1.53l-1.41-1.7-1.62-1.83c-.58-.63-1.19-1.27-1.82-1.93s-1.32-1.32-2-2c-1.42-1.34-3-2.7-4.6-4.06a57.63,57.63,0,0,0-5.26-3.87l-5.7-3.72L77.65,53.53c-.89-.6-1.76-1.15-2.62-1.77a21.35,21.35,0,0,1-2.32-2,12.47,12.47,0,0,1-1.84-2.26,7.37,7.37,0,0,1-1-2.53,5.84,5.84,0,0,1,0-2.53,6.94,6.94,0,0,1,.9-2.08,11.37,11.37,0,0,1,2.46-2.66,15,15,0,0,1,1.92-1.3C75.61,36.14,75.87,36,75.87,36Z"/><path class="cls-7" d="M0,0,52.87,34.76a16.66,16.66,0,0,1,7.47,15L59,68.85a12.93,12.93,0,0,1-7.13,10.7L30.11,90.43c-11.57,5.78-3.17-20.16,8.18-26.37.29-.16,4.65-2.34,4.65-2.34l-13-8.82A67.91,67.91,0,0,1,.1,1.67Q0,.84,0,0Z"/><path class="cls-8" d="M42.93,61.72l5.16,3.5s14.67,8.91-1.21,16.83L30.1,90.43c-11.57,5.78-3.16-20.16,8.18-26.37.29-.16,4.65-2.34,4.65-2.34"/><path class="cls-9" d="M48.28,81.36s.25-.13.7-.42a17,17,0,0,0,1.85-1.37,11.14,11.14,0,0,0,2.33-2.67A6,6,0,0,0,54,72.58a6.86,6.86,0,0,0-1-2.35,11.89,11.89,0,0,0-1.78-2.13,20.69,20.69,0,0,0-2.27-1.9c-.82-.57-1.72-1.16-2.59-1.75L35.19,57l-5.6-3.83a58.28,58.28,0,0,1-5.26-4c-1.63-1.4-3.13-2.83-4.5-4.24-.68-.71-1.33-1.41-2-2.09s-1.2-1.36-1.76-2l-1.55-1.91-1.32-1.78c-.42-.55-.78-1.1-1.12-1.6l-.93-1.37c-.53-.84-.93-1.52-1.21-2l-.42-.7L11.33,34l1,1.32c.36.48.74,1,1.18,1.54l1.39,1.71,1.59,1.85c.57.63,1.18,1.28,1.79,2s1.3,1.34,2,2c1.4,1.36,2.93,2.74,4.54,4.11A57.64,57.64,0,0,0,30,52.48l5.65,3.8,11,7.56c.88.61,1.75,1.17,2.6,1.8a21.35,21.35,0,0,1,2.29,2,12.47,12.47,0,0,1,1.81,2.28,7.37,7.37,0,0,1,1,2.55A5.84,5.84,0,0,1,54.36,75a6.94,6.94,0,0,1-.92,2.06,11.37,11.37,0,0,1-2.49,2.63A15,15,0,0,1,49,81C48.54,81.24,48.28,81.36,48.28,81.36Z"/><path class="cls-10" d="M.1,0q0,.84.09,1.67A65.94,65.94,0,0,0,2.8,16.1L51.68,48.46A16.66,16.66,0,0,1,59.1,63.53l-.55,7.82A12.92,12.92,0,0,0,58.93,69l1.35-19a16.66,16.66,0,0,0-7.42-15.07L.1,0"/><path class="cls-1" d="M240.78,93.55a32.41,32.41,0,0,1,5.34-.36c2.44,0,4.17.47,5.34,1.4a5.11,5.11,0,0,1,1.87,4,5.58,5.58,0,0,1-1.61,4.15,8.1,8.1,0,0,1-5.68,1.84,9.94,9.94,0,0,1-1.35-.08v6.25h-3.92Zm3.92,7.93a6.08,6.08,0,0,0,1.32.1c2.1,0,3.4-1.06,3.4-2.85,0-1.61-1.11-2.57-3.08-2.57a6.71,6.71,0,0,0-1.63.16Z"/><path class="cls-1" d="M264.68,103.4h-6.43v4.15h7.18v3.24H254.28V93.32h10.79v3.24h-6.82v3.63h6.43Z"/><path class="cls-1" d="M282.56,101.87c0,5.73-3.47,9.2-8.58,9.2s-8.22-3.92-8.22-8.89c0-5.24,3.34-9.15,8.5-9.15C279.63,93,282.56,97.05,282.56,101.87Zm-12.63.23c0,3.42,1.61,5.83,4.25,5.83s4.2-2.54,4.2-5.94c0-3.14-1.5-5.83-4.23-5.83S269.94,98.71,269.94,102.11Z"/><path class="cls-1" d="M283.6,93.55a32.41,32.41,0,0,1,5.34-.36c2.44,0,4.17.47,5.34,1.4a5.11,5.11,0,0,1,1.87,4,5.58,5.58,0,0,1-1.61,4.15,8.1,8.1,0,0,1-5.68,1.84,9.94,9.94,0,0,1-1.35-.08v6.25H283.6Zm3.92,7.93a6.08,6.08,0,0,0,1.32.1c2.1,0,3.4-1.06,3.4-2.85,0-1.61-1.11-2.57-3.08-2.57a6.71,6.71,0,0,0-1.63.16Z"/><path class="cls-1" d="M297.1,93.32h4v14.16H308v3.32H297.1Z"/><path class="cls-1" d="M319.18,103.4h-6.43v4.15h7.18v3.24H308.79V93.32h10.79v3.24h-6.82v3.63h6.43Z"/></g></g></svg>