<svg xmlns="http://www.w3.org/2000/svg" xmlns:xlink="http://www.w3.org/1999/xlink" viewBox="0 0 459.56 132.32"><defs><style>.cls-1,.cls-11{fill:#2d2e33;}.cls-2{fill:#8dc641;}.cls-3{fill:url(#Sfumatura_senza_nome_87);}.cls-4{fill:url(#Sfumatura_senza_nome_18);}.cls-5{opacity:0.49;fill:url(#Sfumatura_senza_nome_62);}.cls-6{fill:url(#Sfumatura_senza_nome_86);}.cls-7{fill:url(#Sfumatura_senza_nome_209);}.cls-8{fill:url(#Sfumatura_senza_nome_191);}.cls-9{fill:url(#Sfumatura_senza_nome_208);}.cls-10{opacity:0.64;fill:url(#Sfumatura_senza_nome_191-2);}.cls-11{font-size:29.36px;font-family:MyriadPro-Bold, Myriad Pro;font-weight:700;letter-spacing:-0.06em;}</style><linearGradient id="Sfumatura_senza_nome_87" x1="-299.95" y1="-210.45" x2="-299.95" y2="-317.15" gradientTransform="translate(-278.41 -9.2) rotate(152.9)" gradientUnits="userSpaceOnUse"><stop offset="0" stop-color="#1e75bb"/><stop offset="1" stop-color="#41c2d8"/></linearGradient><linearGradient id="Sfumatura_senza_nome_18" x1="-329.24" y1="-221.73" x2="-290.77" y2="-221.73" gradientTransform="translate(-278.41 -9.2) rotate(152.9)" gradientUnits="userSpaceOnUse"><stop offset="0" stop-color="#27a8e0"/><stop offset="1" stop-color="#293b8f"/></linearGradient><linearGradient id="Sfumatura_senza_nome_62" x1="-372.34" y1="-15.35" x2="-372.34" y2="-89.99" gradientTransform="translate(-259.85 12.46) rotate(-175.78)" gradientUnits="userSpaceOnUse"><stop offset="0" stop-color="#27a8e0" stop-opacity="0"/><stop offset="0.09" stop-color="#49b6e5" stop-opacity="0.16"/><stop offset="0.23" stop-color="#79c9ec" stop-opacity="0.38"/><stop offset="0.36" stop-color="#a2d9f2" stop-opacity="0.57"/><stop offset="0.5" stop-color="#c3e7f6" stop-opacity="0.72"/><stop offset="0.63" stop-color="#ddf1fa" stop-opacity="0.84"/><stop offset="0.76" stop-color="#f0f9fd" stop-opacity="0.93"/><stop offset="0.89" stop-color="#fbfdfe" stop-opacity="0.98"/><stop offset="1" stop-color="#fff"/></linearGradient><linearGradient id="Sfumatura_senza_nome_86" x1="-367.57" y1="-57.26" x2="-367.78" y2="-4.1" gradientTransform="translate(-259.74 12.12) rotate(-176)" gradientUnits="userSpaceOnUse"><stop offset="0" stop-color="#88cedf"/><stop offset="1" stop-color="#25addf"/></linearGradient><linearGradient id="Sfumatura_senza_nome_209" x1="-153.2" y1="-88.24" x2="-103.31" y2="-0.74" gradientTransform="translate(157.42 39.03) rotate(-26.53)" gradientUnits="userSpaceOnUse"><stop offset="0" stop-color="#aed13d"/><stop offset="1" stop-color="#3bb44a"/></linearGradient><linearGradient id="Sfumatura_senza_nome_191" x1="-143.5" y1="-9.82" x2="-105.03" y2="-9.82" gradientTransform="translate(157.42 39.03) rotate(-26.53)" gradientUnits="userSpaceOnUse"><stop offset="0" stop-color="#3a9e49"/><stop offset="1" stop-color="#016938"/></linearGradient><linearGradient id="Sfumatura_senza_nome_208" x1="163.45" y1="-207.05" x2="163.65" y2="-260.22" gradientTransform="translate(218.13 -155.2) rotate(-175.26)" gradientUnits="userSpaceOnUse"><stop offset="0" stop-color="#dbe139"/><stop offset="1" stop-color="#3bb44a"/></linearGradient><linearGradient id="Sfumatura_senza_nome_191-2" x1="-211.72" y1="426.09" x2="-211.72" y2="351.45" gradientTransform="translate(277.82 -328.65) rotate(4.96)" xlink:href="#Sfumatura_senza_nome_191"/></defs><title>iconAsset 1logoclarify</title><g id="Layer_2" data-name="Layer 2"><g id="Layer_1-2" data-name="Layer 1"><path class="cls-1" d="M189.53,92.59c-3.19,1.59-10.35,3.3-19.69,3.3-26.51,0-40.17-16.5-40.17-38.35,0-26.17,18.66-40.74,41.87-40.74,9,0,15.82,1.82,18.89,3.41L186.91,34a37.47,37.47,0,0,0-14.57-2.84c-13.77,0-24.46,8.31-24.46,25.37,0,15.36,9.1,25,24.58,25A43.31,43.31,0,0,0,186.91,79Z"/><path class="cls-1" d="M193.17,14h17.3V94.75h-17.3Z"/><path class="cls-1" d="M249.27,94.75l-1-5.58h-.34C244.26,93.61,238.57,96,232,96c-11.27,0-18-8.19-18-17.07,0-14.45,13-21.39,32.66-21.28v-.8c0-3-1.59-7.17-10.13-7.17a31.29,31.29,0,0,0-15.36,4.21L218,42.75c3.87-2.16,11.49-4.89,21.62-4.89,18.55,0,24.47,10.92,24.47,24V81.21a86.28,86.28,0,0,0,.8,13.54Zm-2-26.29c-9.1-.11-16.16,2-16.16,8.76,0,4.44,3,6.6,6.83,6.6a9.45,9.45,0,0,0,9-6.37,12.38,12.38,0,0,0,.34-3Z"/><path class="cls-1" d="M270.89,57.43c0-8.19-.23-13.54-.46-18.32h14.91l.57,10.24h.46c2.85-8.08,9.67-11.49,15-11.49a17.79,17.79,0,0,1,3.64.23V54.35a24.75,24.75,0,0,0-4.67-.46c-6.37,0-10.7,3.41-11.83,8.76a20.45,20.45,0,0,0-.34,3.87V94.75h-17.3Z"/><path class="cls-2" d="M325.17,23.63c0,4.78-3.64,8.65-9.33,8.65-5.46,0-9.1-3.87-9-8.65-.11-5,3.53-8.76,9.1-8.76S325.06,18.62,325.17,23.63ZM307.31,94.75V39.11h17.3V94.75Z"/><path class="cls-1" d="M333.59,94.75V51.85h-7.28V39.11h7.28V36.94c0-6.71,2-14.11,7.05-18.66C345,14.19,351,12.71,356,12.71a33.25,33.25,0,0,1,9.22,1.14l-.68,13.31a18.71,18.71,0,0,0-5.58-.8c-5.69,0-8.08,4.44-8.08,9.9v2.85H362V51.85H351v42.9Z"/><path class="cls-1" d="M382.53,39.11l8.31,27.31c.91,3.3,2,7.4,2.73,10.35h.34c.8-3,1.71-7.17,2.5-10.35l6.83-27.31h18.55l-13,36.64c-8,22.07-13.31,31-19.57,36.53a31.9,31.9,0,0,1-16.73,7.62l-3.64-14.68a21.8,21.8,0,0,0,7.51-3,19.88,19.88,0,0,0,7.17-6.94,4.51,4.51,0,0,0,.91-2.5,6.27,6.27,0,0,0-.8-2.84L363.3,39.11Z"/><path class="cls-3" d="M141.26,132.32,81.1,93.61a18.84,18.84,0,0,1-8.61-16.93l1.25-21.55A14.63,14.63,0,0,1,81.67,43l24.54-12.55c13-6.66,3.81,22.76-9,29.9C96.93,60.49,92,63,92,63l14.79,9.82a76.79,76.79,0,0,1,34.32,57.61Q141.21,131.37,141.26,132.32Z"/><path class="cls-4" d="M92,63l-5.88-3.9s-16.69-9.91,1.18-19l18.88-9.66c13-6.66,3.8,22.76-9,29.91C96.93,60.49,92,63,92,63"/><path class="cls-5" d="M138,114.16,82.23,78.29a18.84,18.84,0,0,1-8.61-16.93l.51-8.85a14.61,14.61,0,0,0-.4,2.62L72.48,76.68A18.84,18.84,0,0,0,81.1,93.61l60.17,38.72q-.06-1-.13-1.88A74.56,74.56,0,0,0,138,114.16Z"/><path class="cls-6" d="M85.79,40.74s-.28.15-.79.48a19.17,19.17,0,0,0-2.08,1.57,12.59,12.59,0,0,0-2.59,3,6.73,6.73,0,0,0-.83,4.9,7.75,7.75,0,0,0,1.17,2.64,13.44,13.44,0,0,0,2,2.38,23.4,23.4,0,0,0,2.6,2.11c.93.63,2,1.28,3,1.94l12.67,8.28,6.39,4.25a65.9,65.9,0,0,1,6,4.5c1.87,1.55,3.58,3.16,5.15,4.73.78.79,1.52,1.58,2.25,2.33s1.38,1.53,2,2.26l1.78,2.14,1.52,2c.49.62.9,1.23,1.29,1.79l1.07,1.53c.61.95,1.07,1.71,1.4,2.22l.49.79-2-2.89-1.13-1.48c-.41-.54-.85-1.13-1.36-1.72l-1.59-1.92-1.83-2.07c-.65-.71-1.35-1.43-2.06-2.19s-1.49-1.49-2.29-2.25c-1.6-1.52-3.35-3.05-5.2-4.59a65.17,65.17,0,0,0-5.95-4.38l-6.45-4.21-12.6-8.39c-1-.68-2-1.3-3-2a24.14,24.14,0,0,1-2.62-2.25,14.1,14.1,0,0,1-2.08-2.55A8.33,8.33,0,0,1,79,50.86,6.6,6.6,0,0,1,79,48a7.84,7.84,0,0,1,1-2.35,12.85,12.85,0,0,1,2.78-3A17,17,0,0,1,85,41.17C85.5,40.87,85.79,40.74,85.79,40.74Z"/><path class="cls-7" d="M0,0,59.78,39.31a18.84,18.84,0,0,1,8.44,17L66.77,77.85a14.63,14.63,0,0,1-8.06,12.1L34,102.26C21,108.79,30.47,79.47,43.29,72.45c.33-.18,5.26-2.65,5.26-2.65l-14.69-10A76.79,76.79,0,0,1,.11,1.88Q0,1,0,0Z"/><path class="cls-8" d="M48.55,69.8l5.84,4S71,83.83,53,92.79l-19,9.47C21,108.8,30.46,79.46,43.29,72.45c.33-.18,5.26-2.65,5.26-2.65"/><path class="cls-9" d="M54.59,92s.29-.15.8-.47A19.18,19.18,0,0,0,57.49,90a12.59,12.59,0,0,0,2.63-3A6.73,6.73,0,0,0,61,82.08a7.75,7.75,0,0,0-1.14-2.66,13.44,13.44,0,0,0-2-2.41,23.4,23.4,0,0,0-2.57-2.15c-.92-.64-1.94-1.31-2.93-2L39.79,64.44l-6.34-4.33a65.9,65.9,0,0,1-5.95-4.57C25.66,54,24,52.33,22.42,50.74c-.77-.8-1.5-1.6-2.22-2.36s-1.36-1.54-2-2.28l-1.75-2.16-1.49-2c-.48-.62-.88-1.24-1.26-1.8l-1-1.55c-.6-1-1.05-1.72-1.37-2.23l-.48-.79,2,2.92L13.93,40c.41.54.83,1.14,1.33,1.74l1.57,1.94,1.8,2.1c.64.72,1.33,1.45,2,2.21s1.47,1.51,2.26,2.28c1.58,1.54,3.31,3.09,5.14,4.65a65.18,65.18,0,0,0,5.89,4.45l6.39,4.29,12.49,8.55c1,.69,2,1.33,2.94,2a24.14,24.14,0,0,1,2.59,2.28,14.1,14.1,0,0,1,2,2.58A8.33,8.33,0,0,1,61.55,82a6.6,6.6,0,0,1-.08,2.85,7.84,7.84,0,0,1-1,2.33,12.86,12.86,0,0,1-2.82,3,17,17,0,0,1-2.19,1.45C54.89,91.87,54.59,92,54.59,92Z"/><path class="cls-10" d="M.11,0q0,1,.11,1.89A74.56,74.56,0,0,0,3.16,18.21L58.44,54.8a18.84,18.84,0,0,1,8.39,17l-.63,8.84a14.61,14.61,0,0,0,.43-2.61l1.52-21.53a18.84,18.84,0,0,0-8.39-17L.11,0"/><text class="cls-11" transform="translate(413.84 94.83)">ERP</text></g></g></svg>